<svg width="24" height="24" viewBox="0 0 24 24" fill="none" xmlns="http://www.w3.org/2000/svg">
  <!-- Photo camera -->
  <path d="M3 7C3 5.89543 3.89543 5 5 5H7L8 3H12L13 5H15C16.1046 5 17 5.89543 17 7V13C17 14.1046 16.1046 15 15 15H5C3.89543 15 3 14.1046 3 13V7Z" stroke="currentColor" stroke-width="1.5" stroke-linecap="round" stroke-linejoin="round"/>
  <circle cx="10" cy="10" r="2.5" stroke="currentColor" stroke-width="1.5"/>
  <!-- Video camera -->
  <path d="M14 17H8C6.89543 17 6 17.8954 6 19V20C6 21.1046 6.89543 22 8 22H16C17.1046 22 18 21.1046 18 20V19C18 17.8954 17.1046 17 16 17H14Z" stroke="currentColor" stroke-width="1.5" stroke-linecap="round" stroke-linejoin="round"/>
  <path d="M18 18.5L21 17V22L18 20.5" stroke="currentColor" stroke-width="1.5" stroke-linecap="round" stroke-linejoin="round"/>
</svg>
